<svg width="968" height="514" viewBox="0 0 968 514" fill="none" xmlns="http://www.w3.org/2000/svg">
<path d="M140.713 335.866L30.9102 356.166L68.2799 390.306L209.455 356.166L140.713 335.866Z" fill="#EAEAF6"/>
<path d="M168.614 274.239C168.614 274.239 174.594 305.887 175.01 310.94C175.426 315.999 175.409 346.967 175.409 346.967L173.099 346.177C173.099 346.177 171.217 312.392 170.848 310.009C170.479 307.626 166.041 275.697 166.041 275.697L168.614 274.245V274.239Z" fill="#A3A5D7"/>
<path d="M162.476 278.759L167.623 307.555L163.906 308.322L159.053 279.304L162.476 278.759Z" fill="#C6C8E6"/>
<path d="M159.053 279.304L163.907 308.322L162.776 308.656L157.658 279.948L159.053 279.304Z" fill="#A3A5D7"/>
<path d="M151.023 280.885L155.666 309.564L151.545 310.266L147.23 281.382L151.023 280.885Z" fill="#C6C8E6"/>
<path d="M147.229 281.383L151.544 310.267L150.283 310.583L145.67 282.003L147.229 281.383Z" fill="#A3A5D7"/>
<path d="M139.076 282.237L143.009 311.531L138.941 312.175L135.336 282.676L139.076 282.237Z" fill="#C6C8E6"/>
<path d="M135.337 282.676L138.942 312.175L137.693 312.474L133.795 283.279L135.337 282.676Z" fill="#A3A5D7"/>
<path d="M124.234 284.21L128.091 313.979L124.105 314.623L120.564 284.644L124.234 284.21Z" fill="#C6C8E6"/>
<path d="M120.565 284.644L124.106 314.623L122.881 314.927L119.053 285.253L120.565 284.644Z" fill="#A3A5D7"/>
<path d="M109.367 285.645L113.154 315.876L109.244 316.526L105.768 286.084L109.367 285.645Z" fill="#C6C8E6"/>
<path d="M105.766 286.084L109.242 316.526L108.047 316.83L104.283 286.699L105.766 286.084Z" fill="#A3A5D7"/>
<path d="M93.9098 287.601L97.6263 318.265L93.7984 318.915L90.3867 288.034L93.9098 287.601Z" fill="#C6C8E6"/>
<path d="M90.3854 288.034L93.7971 318.915L92.6188 319.219L88.9316 288.655L90.3854 288.034Z" fill="#A3A5D7"/>
<path d="M77.8474 289.059L81.8394 320.847L77.6891 321.515L74.0312 289.51L77.8474 289.059Z" fill="#C6C8E6"/>
<path d="M74.03 289.509L77.6879 321.514L76.4158 321.836L72.4531 290.153L74.03 289.509Z" fill="#A3A5D7"/>
<path d="M61.2205 290.517L65.2418 323.16L61.0505 323.839L57.3691 290.979L61.2205 290.517Z" fill="#C6C8E6"/>
<path d="M57.3718 290.979L61.0531 323.839L59.7752 324.161L55.7832 291.641L57.3718 290.979Z" fill="#A3A5D7"/>
<path d="M210.464 299.153L208.77 357.753L205.68 356.904L203.945 297.701L210.464 299.153Z" fill="#A3A5D7"/>
<path d="M208.77 357.753L211.15 356.64L213.195 298.222L210.464 299.153L208.77 357.753Z" fill="#C6C8E6"/>
<path d="M173.838 274.245C173.838 274.245 177.654 305.284 178.059 309.81C178.463 314.342 177.367 346.159 177.367 346.159L175.409 346.967C175.409 346.967 175.175 314.154 174.794 310.963C174.413 307.778 168.615 274.239 168.615 274.239H173.838V274.245Z" fill="#C6C8E6"/>
<path d="M214.953 300.324C214.953 300.324 197.197 299.013 188.439 297.157C179.78 295.324 174.141 292.332 174.141 292.332L172.764 288.391C172.764 288.391 186.698 292.917 193.738 294.27C200.849 295.634 212.444 295.218 214.53 296.507C216.623 297.801 214.947 300.318 214.947 300.318L214.953 300.324Z" fill="#A3A5D7"/>
<path d="M175.05 287.77C175.05 287.77 185.033 292.449 197.783 294.129C210.744 295.833 215.896 295.101 217.643 296.407C219.39 297.713 218.394 299.668 218.394 299.668L214.947 300.33C214.947 300.33 214.9 297.596 211.447 297.174C208.012 296.747 196.094 295.593 189.377 293.907C181.035 291.811 172.758 288.403 172.758 288.403L175.038 287.776L175.05 287.77Z" fill="#C6C8E6"/>
<path d="M168.965 275.814L42.1582 288.409L42.7796 293.749L169.68 279.497L168.965 275.814Z" fill="#C6C8E6"/>
<path d="M175.038 306.425L45.9805 325.654L46.6136 331.275L175.771 310.94L175.038 306.425Z" fill="#C6C8E6"/>
<path d="M207.736 319.073L206.833 325.894L69.9375 352.577L69.8262 345.111L207.736 319.073Z" fill="#C6C8E6"/>
<path d="M207.732 318.798L64.3358 346.048L42.8164 335.479L178.123 313.551L207.732 318.798Z" fill="#C6C8E6"/>
<path d="M69.92 345.474L208.533 319.453L208.304 318.657L69.7324 344.748L69.92 345.474Z" fill="#A3A5D7"/>
<path d="M63.2969 345.146L45.8633 336.914L45.9688 344.502L62.8514 353.572L63.2969 345.146Z" fill="#A3A5D7"/>
<path d="M58.4859 343.688C58.4859 343.688 58.5211 343.688 58.5387 343.688L199.971 317.948C200.153 317.913 200.27 317.767 200.229 317.626C200.188 317.48 200.012 317.392 199.825 317.421L58.4156 343.208C58.2632 343.237 58.1694 343.366 58.1987 343.501C58.228 343.618 58.3453 343.7 58.4742 343.7L58.4859 343.688Z" fill="#A3A5D7"/>
<path d="M53.1266 340.766C53.1266 340.766 53.1617 340.766 53.1793 340.766L189.524 316.069C189.706 316.034 189.823 315.893 189.782 315.747C189.747 315.601 189.565 315.513 189.389 315.542L53.0679 340.281C52.9155 340.31 52.8217 340.439 52.8511 340.573C52.8804 340.69 52.9976 340.772 53.1266 340.772V340.766Z" fill="#A3A5D7"/>
<path d="M48.3727 338.354C48.3727 338.354 48.4078 338.354 48.4254 338.354L181.886 314.681C182.068 314.652 182.179 314.506 182.144 314.359C182.109 314.213 181.933 314.125 181.751 314.154L48.314 337.868C48.1616 337.898 48.0678 338.026 48.0971 338.155C48.1265 338.272 48.2437 338.354 48.3727 338.354Z" fill="#A3A5D7"/>
<path d="M42.3461 286.529C42.3461 286.529 46.174 324.366 46.5843 329.887C46.9947 335.409 45.8809 374.136 45.8809 374.136L43.9113 375.078C43.9113 375.078 43.6885 335.257 43.3075 331.363C42.9264 327.475 37.0996 286.447 37.0996 286.447L42.352 286.529H42.3461Z" fill="#C6C8E6"/>
<path d="M37.0949 286.453C37.0949 286.453 42.8807 325.086 43.2969 331.24C43.7131 337.4 43.9066 375.084 43.9066 375.084L41.5852 374.077C41.5852 374.077 39.6976 332.914 39.3283 330.01C38.959 327.106 34.5039 288.186 34.5039 288.186L37.0891 286.453H37.0949Z" fill="#A3A5D7"/>
<g clip-path="url(#clip0_440_4200)">
<path d="M107.088 316.854L100.503 317.748L101.44 332.276L85.0128 334.944L83.8596 319.998L67.4721 322.216L56.1496 315.288L55.3633 307.238L79.9085 253.831L96.3615 253.563L99.5001 302.254L106.17 301.543L107.081 316.854H107.088ZM82.6277 304.048L81.907 294.681C81.7694 292.9 81.6383 290.493 81.5073 287.446C81.3762 284.387 81.3369 282.769 81.3828 282.619L80.8848 282.651C80.0788 285.62 79.1222 288.412 78.0083 291.028L71.659 305.216L82.6277 304.048Z" fill="#6367BB"/>
<path d="M149.554 289.56C149.889 302.098 148.644 311.335 145.826 317.467C142.995 323.619 138.428 327.22 132.02 328.277C125.612 329.334 120.482 327.063 116.76 321.342C112.946 315.497 110.646 306.136 109.919 293.18C109.139 279.325 110.345 268.907 113.543 262.142C116.72 255.409 121.884 251.998 128.895 251.9C135.539 251.808 140.558 255.051 144.018 261.515C147.399 267.843 149.227 277.204 149.554 289.553V289.56ZM125.396 291.771C125.769 300.193 126.418 305.875 127.335 308.876C128.253 311.877 129.596 313.221 131.398 312.979C133.2 312.738 134.418 311.003 135.034 307.767C135.65 304.531 135.821 298.908 135.519 290.845C135.218 282.782 134.615 276.872 133.717 273.571C132.813 270.244 131.437 268.606 129.583 268.698C127.728 268.789 126.451 270.498 125.795 273.838C125.14 277.172 125.009 283.173 125.396 291.771Z" fill="#6367BB"/>
<path d="M189.123 305.751L184.419 306.39V318.785L172.729 320.69L172.605 307.989L153.753 310.539L153.426 296.755L172.873 252.317L184.373 252.128L184.405 293.219L189.156 292.711L189.117 305.751H189.123ZM172.474 294.485L172.395 286.579C172.382 285.078 172.395 283.049 172.447 280.486C172.5 277.909 172.539 276.558 172.585 276.428L172.238 276.454C171.537 278.94 170.744 281.275 169.853 283.46L164.781 295.307L172.474 294.492V294.485Z" fill="#6367BB"/>
</g>
<path d="M68.9134 321.544L67.6472 390.876L63.9306 389.043L61.7852 318.681L68.9134 321.544Z" fill="#A3A5D7"/>
<path d="M67.6466 390.876L69.6221 389.6L71.1814 320.502L67.4707 320.285L67.6466 390.876Z" fill="#C6C8E6"/>
<path d="M72.648 323.031C72.648 323.031 58.802 320.449 51.9551 317.193C44.1528 313.475 39.9673 308.346 39.9673 308.346L38.8066 303.644C38.8066 303.644 50.4955 312.134 56.3751 313.885C62.3074 315.653 70.5553 316.936 72.2963 318.511C74.0373 320.086 72.648 323.031 72.648 323.031Z" fill="#A3A5D7"/>
<path d="M42.0952 303.527C42.0952 303.527 49.1003 311.531 59.7457 313.791C70.5494 316.086 73.4218 316.865 74.8814 318.446C76.3411 320.027 76.3762 322.328 76.3762 322.328L72.6539 323.025C72.6539 323.025 72.4018 320.285 69.7405 319.213C66.3053 317.825 59.7926 316.994 52.4768 314.224C45.4952 311.584 38.8125 303.638 38.8125 303.638L42.0952 303.527Z" fill="#C6C8E6"/>
<path d="M155.395 10.3479C155.395 10.3479 156.186 14.1011 157.212 15.4478C158.238 16.7946 159.938 18.1705 166.175 18.1705C172.412 18.1705 177.746 17.4679 184.781 16.8004C191.815 16.1329 194.424 15.7933 198.738 14.2592C203.053 12.7251 203.955 11.841 204.753 10.5294C205.55 9.21783 204.301 5.81592 204.301 5.81592" fill="#FFAA1F"/>
<path d="M156.076 1.62339L206.548 0.00147882C207.949 -0.0453633 209.139 1.02615 209.232 2.42556L209.573 7.43767C209.666 8.81366 208.67 10.0257 207.298 10.2014L155.495 16.771C153.936 16.9701 152.559 15.758 152.559 14.1888V4.22898C152.559 2.78859 153.725 1.62339 155.167 1.62339H156.076Z" fill="#EAEAF6"/>
<path d="M57.9101 22.0817C75.4082 15.5531 98.4166 11.0035 126.29 8.56187C141.074 7.26786 153.127 6.94581 159.036 6.8697L204.753 3.35068H159.065C158.42 3.35068 143.073 3.25699 122.398 5.06627C94.5242 7.50792 71.5158 12.0575 54.0177 18.5861C25.8097 29.1139 10.293 53.6709 10.3106 87.731V316.678H14.2088V91.2266C14.1912 57.1606 29.708 32.6095 57.9101 22.0817Z" fill="#C6C8E6"/>
<path d="M19.1038 87.7249C19.1038 83.8195 19.0921 71.9333 23.9048 59.3854C29.8957 43.7577 41.0629 32.7966 57.0896 26.8184C97.133 11.8758 158.379 12.1334 158.995 12.1393L159.036 6.87537C153.127 6.95148 141.075 7.27352 126.291 8.56754C98.4168 11.0092 75.4084 15.5587 57.9103 22.0874C29.7082 32.6034 14.1856 57.1604 14.209 91.2264V316.678H19.1038V87.7249Z" fill="#EAEAF6"/>
<path d="M24.7543 319.395L20.4164 316.678H16.0433H13.0361H8.66307L4.31932 319.395L2.18555 398.342L13.0361 399.63H16.0433L26.8646 397.51L24.7543 319.395Z" fill="#C6C8E6"/>
<path d="M18.6119 398.435L0 396.157V399.103L18.6119 401.38V398.435Z" fill="#EAEAF6"/>
<path d="M4.32031 319.395L20.4174 316.678L24.7553 319.395L26.8656 397.51L18.6705 399.63L14.2095 319.395H4.32031Z" fill="#E6E7F4"/>
<path d="M18.6113 398.435L29.2333 394.389V397.334L18.6113 401.38V398.435Z" fill="#DCDDEF"/>
<path d="M20.3008 501.493L156.862 18.4559L204.381 11.0742L967.001 513.95L20.3008 501.493Z" fill="url(#paint0_linear_440_4200)" fill-opacity="0.1"/>
<defs>
<linearGradient id="paint0_linear_440_4200" x1="173.932" y1="11.0726" x2="285.118" y2="474.273" gradientUnits="userSpaceOnUse">
<stop stop-color="#FFC057"/>
<stop offset="1" stop-color="#FFBC4D" stop-opacity="0"/>
</linearGradient>
<clipPath id="clip0_440_4200">
<rect width="133.793" height="83.0439" fill="white" transform="translate(55.3633 251.9)"/>
</clipPath>
</defs>
</svg>
