<svg width="3569" height="244" viewBox="0 0 3569 244" fill="none" xmlns="http://www.w3.org/2000/svg">
<g clip-path="url(#clip0_86_2998)">
<path fill-rule="evenodd" clip-rule="evenodd" d="M2117.21 612.736C2027.78 800.859 1830.86 929.594 1604.19 922.071C1315.35 912.496 1081.92 678.148 1077.57 393.674C1072.97 93.2459 1318.93 -151.634 1623 -151.634C1841.79 -151.634 2030.41 -24.8371 2117.31 158.242C2134.94 195.375 2172.74 219.14 2214.35 219.14H3490.29C3533.76 219.14 3569 184.422 3569 141.632V-315.149C3569 -417.699 3502.51 -510.204 3403.58 -545.345C3125.54 -643.989 1918.65 -694 1623 -694C1325.89 -694 1033.68 -643.507 754.464 -543.906C657.884 -509.476 0 -417.524 0 -315.149V424.481C0 779.795 771.916 1112.07 1070.67 1311.51L1562.33 1639.67C1598.96 1664.11 1647.04 1664.11 1683.68 1639.67L2175.33 1311.51C2411.22 1154.01 2572.34 913.766 2629.72 644.687C2639.95 596.668 2602.39 551.652 2552.56 551.652H2214.36C2172.65 551.652 2134.89 575.544 2117.21 612.736Z" fill="#303364"/>
</g>
<defs>
<clipPath id="clip0_86_2998">
<rect width="3569" height="244" fill="white"/>
</clipPath>
</defs>
</svg>
