<svg width="107" height="20" viewBox="0 0 107 20" fill="none" xmlns="http://www.w3.org/2000/svg">
<g clip-path="url(#clip0_42_2404)">
<path fill-rule="evenodd" clip-rule="evenodd" d="M12.8636 11.0202C12.1089 12.6067 10.4469 13.6924 8.53395 13.6289C6.09627 13.5482 4.12626 11.5718 4.08953 9.17277C4.05073 6.63914 6.12655 4.57397 8.69274 4.57397C10.5392 4.57397 12.1311 5.6433 12.8645 7.18728C13.0132 7.50043 13.3322 7.70086 13.6835 7.70086H16.7212C17.0881 7.70086 17.3854 7.40806 17.3854 7.0472V3.195C17.3854 2.33015 16.8243 1.55002 15.9893 1.25367C13.6428 0.421763 11.1878 0 8.69274 0C6.18526 0 3.7191 0.425823 1.36268 1.2658C0.547588 1.55616 0 2.33162 0 3.195V9.43257C0 12.4291 1.50997 15.2312 4.03128 16.9132L8.18065 19.6808C8.48984 19.8868 8.8956 19.8868 9.20484 19.6808L13.3541 16.9132C15.3449 15.585 16.7047 13.5589 17.1889 11.2897C17.2753 10.8847 16.9583 10.5051 16.5378 10.5051H13.6835C13.3315 10.5051 13.0128 10.7065 12.8636 11.0202Z" fill="#7478C3"/>
<path fill-rule="evenodd" clip-rule="evenodd" d="M36.3948 11.7235C35.6429 14.3688 33.2045 16.364 30.1053 16.364C26.049 16.364 23.474 13.2929 23.474 9.90761C23.474 6.29796 26.2769 3.45123 29.9914 3.45123C32.9539 3.45123 35.6202 5.24436 36.3948 8.18148H34.9817C34.4157 8.18148 33.8813 7.90639 33.5747 7.43793C32.8091 6.26903 31.4937 5.62552 30.0826 5.62552C28.8291 5.60314 27.9176 6.00668 27.0518 6.81366C26.3226 7.53127 25.8439 8.6743 25.8439 9.90761C25.8439 12.4184 27.7127 14.1891 30.0826 14.1891C31.736 14.1714 32.8969 13.3842 33.5536 12.4519C33.8727 11.9992 34.3906 11.7235 34.9506 11.7235H36.3948Z" fill="#7478C3"/>
<path fill-rule="evenodd" clip-rule="evenodd" d="M40.341 9.95227C40.3639 11.7682 41.6628 14.1891 44.6707 14.1891C46.5622 14.1891 47.9067 13.1584 48.522 11.7682C48.7955 11.2079 48.9321 10.5801 48.955 9.95227C48.9777 9.32445 48.8638 8.69708 48.5903 8.13631C47.998 6.72429 46.6078 5.62552 44.6253 5.62552C42.0273 5.62552 40.341 7.64349 40.341 9.92994V9.95227ZM51.3022 16.0052H48.9321V13.8755C48.0663 15.5123 46.2887 16.364 44.3289 16.364C40.341 16.364 37.9711 13.3152 37.9711 9.90761C37.9711 6.18584 40.7284 3.45123 44.3289 3.45123C46.7901 3.45123 48.3625 4.79621 48.9321 5.96202V3.8095H50.1403C50.7821 3.8095 51.3022 4.32161 51.3022 4.95303V16.0052Z" fill="#7478C3"/>
<path fill-rule="evenodd" clip-rule="evenodd" d="M64.4218 9.88523C64.4218 7.88964 62.9861 5.62552 60.0918 5.62552C58.8613 5.62552 57.7903 6.09652 57.0154 6.88117C56.2637 7.64349 55.8077 8.71947 55.8077 9.92994C55.8077 11.1404 56.2637 12.1941 57.0381 12.9563C57.813 13.7187 58.9067 14.1891 60.115 14.1891C62.6213 14.1891 64.4218 12.2839 64.4218 9.90761V9.88523ZM53.5516 3.8095H55.8077V5.93964C56.742 4.48204 58.3372 3.45123 60.5473 3.45123C64.8088 3.45123 66.8146 6.94811 66.8146 9.97455C66.8146 13.4274 64.2851 16.364 60.5706 16.364C57.9956 16.364 56.4686 14.9744 55.9217 13.9877V19.9868H54.7139C54.0721 19.9868 53.5516 19.4752 53.5516 18.8438V3.8095Z" fill="#7478C3"/>
<path fill-rule="evenodd" clip-rule="evenodd" d="M79.1764 9.88523C79.1764 7.88964 77.7406 5.62552 74.8463 5.62552C73.6159 5.62552 72.5449 6.09652 71.77 6.88117C71.0183 7.64349 70.5627 8.71947 70.5627 9.92994C70.5627 11.1404 71.0183 12.1941 71.7932 12.9563C72.5681 13.7187 73.6618 14.1891 74.8696 14.1891C77.3759 14.1891 79.1764 12.2839 79.1764 9.90761V9.88523ZM68.3067 3.8095H70.5627V5.93964C71.4965 4.48204 73.0917 3.45123 75.3024 3.45123C79.5638 3.45123 81.5692 6.94811 81.5692 9.97455C81.5692 13.4274 79.0397 16.364 75.3251 16.364C72.7502 16.364 71.2236 14.9744 70.6762 13.9877V19.9868H69.4685C68.8267 19.9868 68.3067 19.4752 68.3067 18.8438V3.8095Z" fill="#7478C3"/>
<path fill-rule="evenodd" clip-rule="evenodd" d="M93.2912 8.83158C93.1772 7.21716 91.5366 5.4017 89.1892 5.44631C86.7737 5.44631 85.2012 7.17249 85.0872 8.83158H93.2912ZM85.0418 10.6476C85.1558 13.1132 87.3433 14.3688 89.2119 14.3688C90.658 14.3688 91.777 13.7761 92.4941 12.7813C92.7098 12.4818 93.0616 12.3062 93.4346 12.3062H95.2506C94.6584 13.6512 93.7922 14.6601 92.7438 15.3327C91.6955 16.028 90.4656 16.364 89.2119 16.364C85.1558 16.364 82.649 13.1584 82.649 9.92994C82.649 6.43245 85.4292 3.45123 89.1892 3.45123C90.9665 3.45123 92.5844 4.10139 93.7695 5.24436C95.2279 6.7015 95.8434 8.6073 95.6381 10.6476H85.0418Z" fill="#7478C3"/>
<path fill-rule="evenodd" clip-rule="evenodd" d="M99.6003 9.65796L95.4302 3.80652H97.6692C98.0634 3.80652 98.4307 4.00344 98.6453 4.32882L101.059 7.99882L103.794 3.80652H106.619L102.472 9.65796L106.961 16.0022H104.696C104.303 16.0022 103.938 15.8077 103.723 15.4845L101.059 11.4739L98.0283 16.0022H95.134L99.6003 9.65796Z" fill="#7478C3"/>
</g>
<defs>
<clipPath id="clip0_42_2404">
<rect width="107" height="20" fill="white"/>
</clipPath>
</defs>
</svg>
