<svg width="1676" height="1914" viewBox="0 0 1676 1914" fill="none" xmlns="http://www.w3.org/2000/svg">
<path fill-rule="evenodd" clip-rule="evenodd" d="M1240.09 1063.39C1167.32 1216.48 1007.11 1321.24 822.694 1315.12C587.695 1307.33 397.782 1116.62 394.241 885.123C390.501 640.641 590.615 441.364 838.003 441.364C1016.01 441.364 1169.47 544.548 1240.17 693.534C1254.51 723.751 1285.26 743.091 1319.12 743.091H1611.97C1647.33 743.091 1676 714.838 1676 680.017V308.3C1676 224.847 1621.91 149.568 1541.41 120.972C1315.2 40.6979 1078.54 0 838.003 0C596.275 0 358.531 41.0897 131.365 122.143C52.7889 150.161 0 224.989 0 308.3V910.193C0 1199.34 145.565 1469.73 388.625 1632.03L788.635 1899.09C818.442 1918.97 857.558 1918.97 887.37 1899.09L1287.37 1632.03C1479.29 1503.87 1610.37 1308.36 1657.06 1089.39C1665.39 1050.31 1634.82 1013.68 1594.29 1013.68H1319.13C1285.19 1013.68 1254.47 1033.12 1240.09 1063.39Z" fill="#D9DAED"/>
</svg>
