<svg width="214" height="40" viewBox="0 0 214 40" fill="none" xmlns="http://www.w3.org/2000/svg">
<g clip-path="url(#clip0_34_16100)">
<path fill-rule="evenodd" clip-rule="evenodd" d="M25.7273 22.0404C24.2177 25.2134 20.8939 27.3848 17.0679 27.2579C12.1925 27.0964 8.25252 23.1437 8.17905 18.3455C8.10146 13.2783 12.2531 9.14795 17.3855 9.14795C21.0785 9.14795 24.2622 11.2866 25.729 14.3746C26.0265 15.0009 26.6645 15.4017 27.3669 15.4017H33.4424C34.1761 15.4017 34.7709 14.8161 34.7709 14.0944V6.38999C34.7709 4.66031 33.6487 3.10004 31.9787 2.50733C27.2856 0.843527 22.3757 0 17.3855 0C12.3705 0 7.4382 0.851647 2.72535 2.53159C1.09518 3.11232 0 4.66325 0 6.38999V18.8651C0 24.8581 3.01994 30.4625 8.06256 33.8264L16.3613 39.3615C16.9797 39.7736 17.7912 39.7736 18.4097 39.3615L26.7082 33.8264C30.6898 31.17 33.4094 27.1178 34.3779 22.5793C34.5507 21.7694 33.9166 21.0101 33.0756 21.0101H27.367C26.663 21.0101 26.0257 21.4131 25.7273 22.0404Z" fill="#FF9200"/>
<path fill-rule="evenodd" clip-rule="evenodd" d="M72.7894 23.4471C71.2857 28.7377 66.4088 32.728 60.2104 32.728C52.0979 32.728 46.9478 26.5858 46.9478 19.8153C46.9478 12.596 52.5536 6.90253 59.9826 6.90253C65.9076 6.90253 71.2403 10.4888 72.7894 16.363H69.9632C68.8312 16.363 67.7624 15.8128 67.1493 14.8759C65.6181 12.5381 62.9872 11.2511 60.165 11.2511C57.658 11.2063 55.835 12.0134 54.1033 13.6274C52.645 15.0626 51.6876 17.3487 51.6876 19.8153C51.6876 24.8369 55.4252 28.3783 60.165 28.3783C63.4719 28.3428 65.7936 26.7685 67.1071 24.9038C67.7452 23.9984 68.781 23.4471 69.901 23.4471H72.7894Z" fill="#06008C"/>
<path fill-rule="evenodd" clip-rule="evenodd" d="M80.6823 19.9046C80.7281 23.5365 83.3259 28.3783 89.3416 28.3783C93.1246 28.3783 95.8136 26.3168 97.0443 23.5365C97.5913 22.4159 97.8645 21.1603 97.9103 19.9046C97.9557 18.649 97.7279 17.3942 97.1809 16.2727C95.9962 13.4486 93.2159 11.2511 89.2509 11.2511C84.0549 11.2511 80.6823 15.287 80.6823 19.8599V19.9046ZM102.605 32.0104H97.8645V27.7511C96.1328 31.0247 92.5776 32.728 88.658 32.728C80.6823 32.728 75.9424 26.6305 75.9424 19.8153C75.9424 12.3717 81.4571 6.90253 88.658 6.90253C93.5804 6.90253 96.7251 9.59247 97.8645 11.9241V7.61907H100.281C101.565 7.61907 102.605 8.64328 102.605 9.90613V32.0104Z" fill="#06008C"/>
<path fill-rule="evenodd" clip-rule="evenodd" d="M128.844 19.7705C128.844 15.7793 125.972 11.2511 120.183 11.2511C117.723 11.2511 115.58 12.1931 114.031 13.7624C112.527 15.287 111.615 17.439 111.615 19.8599C111.615 22.2809 112.527 24.3882 114.076 25.9127C115.626 27.4375 117.813 28.3783 120.23 28.3783C125.242 28.3783 128.844 24.5679 128.844 19.8153V19.7705ZM107.103 7.61907H111.615V11.8793C113.484 8.96414 116.674 6.90253 121.095 6.90253C129.617 6.90253 133.629 13.8963 133.629 19.9492C133.629 26.8548 128.57 32.728 121.141 32.728C115.991 32.728 112.937 29.9488 111.843 27.9755V39.9736H109.428C108.144 39.9736 107.103 38.9504 107.103 37.6876V7.61907Z" fill="#06008C"/>
<path fill-rule="evenodd" clip-rule="evenodd" d="M158.353 19.7705C158.353 15.7793 155.481 11.2511 149.693 11.2511C147.232 11.2511 145.09 12.1931 143.54 13.7624C142.037 15.287 141.125 17.439 141.125 19.8599C141.125 22.2809 142.037 24.3882 143.586 25.9127C145.136 27.4375 147.324 28.3783 149.739 28.3783C154.752 28.3783 158.353 24.5679 158.353 19.8153V19.7705ZM136.613 7.61907H141.125V11.8793C142.993 8.96414 146.183 6.90253 150.605 6.90253C159.128 6.90253 163.138 13.8963 163.138 19.9492C163.138 26.8548 158.079 32.728 150.65 32.728C145.5 32.728 142.447 29.9488 141.352 27.9755V39.9736H138.937C137.653 39.9736 136.613 38.9504 136.613 37.6876V7.61907Z" fill="#06008C"/>
<path fill-rule="evenodd" clip-rule="evenodd" d="M186.582 17.6632C186.354 14.4344 183.073 10.8035 178.378 10.8927C173.547 10.8927 170.402 14.345 170.174 17.6632H186.582ZM170.083 21.2953C170.311 26.2265 174.686 28.7377 178.424 28.7377C181.316 28.7377 183.554 27.5522 184.988 25.5626C185.419 24.9637 186.123 24.6124 186.869 24.6124H190.501C189.317 27.3025 187.584 29.3203 185.488 30.6654C183.391 32.0561 180.931 32.728 178.424 32.728C170.311 32.728 165.298 26.3168 165.298 19.8599C165.298 12.865 170.858 6.90253 178.378 6.90253C181.933 6.90253 185.169 8.20284 187.539 10.4888C190.456 13.4031 191.687 17.2147 191.276 21.2953H170.083Z" fill="#06008C"/>
<path fill-rule="evenodd" clip-rule="evenodd" d="M199.201 19.3159L190.86 7.61304H195.338C196.127 7.61304 196.861 8.00689 197.291 8.65765L202.118 15.9976L207.587 7.61304H213.238L204.944 19.3159L213.923 32.0043H209.392C208.607 32.0043 207.875 31.6155 207.446 30.969L202.118 22.9479L196.057 32.0043H190.268L199.201 19.3159Z" fill="#06008C"/>
</g>
<defs>
<clipPath id="clip0_34_16100">
<rect width="214" height="40" fill="white"/>
</clipPath>
</defs>
</svg>
