<svg width="370" height="370" viewBox="0 0 370 370" fill="none" xmlns="http://www.w3.org/2000/svg">
<path fill-rule="evenodd" clip-rule="evenodd" d="M107.917 46.25C103.828 46.25 99.9068 47.8743 97.0156 50.7655C94.1244 53.6567 92.5002 57.578 92.5002 61.6667V277.5C92.5002 281.589 94.1244 285.51 97.0156 288.401C99.9068 291.292 103.828 292.917 107.917 292.917H192.709V308.333H107.917C99.7393 308.333 91.8967 305.085 86.1144 299.302C80.332 293.52 77.0835 285.678 77.0835 277.5V61.6667C77.0835 53.4892 80.332 45.6466 86.1144 39.8642C91.8967 34.0819 99.7393 30.8334 107.917 30.8334H262.084C270.261 30.8334 278.104 34.0819 283.886 39.8642C289.668 45.6466 292.917 53.4892 292.917 61.6667V277.5C292.917 285.678 289.668 293.52 283.886 299.302C278.104 305.085 270.261 308.333 262.084 308.333H238.959V292.917H262.084C266.172 292.917 270.094 291.292 272.985 288.401C275.876 285.51 277.5 281.589 277.5 277.5V61.6667C277.5 57.578 275.876 53.6567 272.985 50.7655C270.094 47.8743 266.172 46.25 262.084 46.25H107.917Z" fill="#1C1E40"/>
<path fill-rule="evenodd" clip-rule="evenodd" d="M138.75 84.7917C138.75 82.7473 139.562 80.7867 141.008 79.3411C142.454 77.8955 144.414 77.0834 146.459 77.0834H223.542C225.586 77.0834 227.547 77.8955 228.993 79.3411C230.438 80.7867 231.25 82.7473 231.25 84.7917C231.25 86.8361 230.438 88.7967 228.993 90.2423C227.547 91.6879 225.586 92.5 223.542 92.5H146.459C144.414 92.5 142.454 91.6879 141.008 90.2423C139.562 88.7967 138.75 86.8361 138.75 84.7917ZM107.917 131.042C107.917 128.997 108.729 127.037 110.175 125.591C111.62 124.145 113.581 123.333 115.625 123.333H254.375C256.42 123.333 258.38 124.145 259.826 125.591C261.272 127.037 262.084 128.997 262.084 131.042C262.084 133.086 261.272 135.047 259.826 136.492C258.38 137.938 256.42 138.75 254.375 138.75H115.625C113.581 138.75 111.62 137.938 110.175 136.492C108.729 135.047 107.917 133.086 107.917 131.042ZM107.917 161.875C107.917 159.831 108.729 157.87 110.175 156.424C111.62 154.979 113.581 154.167 115.625 154.167H254.375C256.42 154.167 258.38 154.979 259.826 156.424C261.272 157.87 262.084 159.831 262.084 161.875C262.084 163.919 261.272 165.88 259.826 167.326C258.38 168.771 256.42 169.583 254.375 169.583H115.625C113.581 169.583 111.62 168.771 110.175 167.326C108.729 165.88 107.917 163.919 107.917 161.875ZM107.917 192.708C107.917 190.664 108.729 188.703 110.175 187.258C111.62 185.812 113.581 185 115.625 185H254.375C256.42 185 258.38 185.812 259.826 187.258C261.272 188.703 262.084 190.664 262.084 192.708C262.084 194.753 261.272 196.713 259.826 198.159C258.38 199.605 256.42 200.417 254.375 200.417H115.625C113.581 200.417 111.62 199.605 110.175 198.159C108.729 196.713 107.917 194.753 107.917 192.708ZM215.834 269.792C219.922 269.792 223.844 268.167 226.735 265.276C229.626 262.385 231.25 258.464 231.25 254.375C231.25 250.286 229.626 246.365 226.735 243.474C223.844 240.583 219.922 238.958 215.834 238.958C211.745 238.958 207.824 240.583 204.932 243.474C202.041 246.365 200.417 250.286 200.417 254.375C200.417 258.464 202.041 262.385 204.932 265.276C207.824 268.167 211.745 269.792 215.834 269.792ZM215.834 285.208C224.011 285.208 231.854 281.96 237.636 276.177C243.418 270.395 246.667 262.553 246.667 254.375C246.667 246.198 243.418 238.355 237.636 232.573C231.854 226.79 224.011 223.542 215.834 223.542C207.656 223.542 199.814 226.79 194.031 232.573C188.249 238.355 185 246.198 185 254.375C185 262.553 188.249 270.395 194.031 276.177C199.814 281.96 207.656 285.208 215.834 285.208Z" fill="#1C1E40"/>
<path fill-rule="evenodd" clip-rule="evenodd" d="M208.125 269.792H192.708V339.167L215.833 327.604L238.958 339.167V269.792H223.542V314.223L215.833 310.368L208.125 314.223V269.792Z" fill="#1C1E40"/>
</svg>
