<svg width="968" height="514" viewBox="0 0 968 514" fill="none" xmlns="http://www.w3.org/2000/svg">
<path d="M140.713 335.866L30.9102 356.166L68.2799 390.306L209.455 356.166L140.713 335.866Z" fill="#1A1C3C"/>
<path d="M168.614 274.239C168.614 274.239 174.594 305.887 175.01 310.94C175.426 315.999 175.409 346.967 175.409 346.967L173.099 346.177C173.099 346.177 171.217 312.392 170.848 310.009C170.479 307.626 166.041 275.697 166.041 275.697L168.614 274.245V274.239Z" fill="#14152E"/>
<path d="M162.476 278.759L167.623 307.555L163.906 308.322L159.053 279.304L162.476 278.759Z" fill="#2A2D60"/>
<path d="M159.053 279.304L163.907 308.322L162.776 308.656L157.658 279.948L159.053 279.304Z" fill="#14152E"/>
<path d="M151.023 280.885L155.666 309.564L151.545 310.266L147.23 281.382L151.023 280.885Z" fill="#2A2D60"/>
<path d="M147.229 281.383L151.544 310.267L150.283 310.583L145.67 282.003L147.229 281.383Z" fill="#14152E"/>
<path d="M139.076 282.237L143.009 311.531L138.941 312.175L135.336 282.676L139.076 282.237Z" fill="#2A2D60"/>
<path d="M135.337 282.676L138.942 312.175L137.693 312.474L133.795 283.279L135.337 282.676Z" fill="#14152E"/>
<path d="M124.234 284.21L128.091 313.979L124.105 314.623L120.564 284.644L124.234 284.21Z" fill="#2A2D60"/>
<path d="M120.565 284.644L124.106 314.623L122.881 314.927L119.053 285.253L120.565 284.644Z" fill="#14152E"/>
<path d="M109.367 285.645L113.154 315.876L109.244 316.526L105.768 286.084L109.367 285.645Z" fill="#2A2D60"/>
<path d="M105.766 286.084L109.242 316.526L108.047 316.83L104.283 286.699L105.766 286.084Z" fill="#14152E"/>
<path d="M93.9098 287.601L97.6263 318.265L93.7984 318.915L90.3867 288.034L93.9098 287.601Z" fill="#2A2D60"/>
<path d="M90.3854 288.034L93.7971 318.915L92.6188 319.219L88.9316 288.655L90.3854 288.034Z" fill="#14152E"/>
<path d="M77.8474 289.059L81.8394 320.847L77.6891 321.515L74.0312 289.51L77.8474 289.059Z" fill="#2A2D60"/>
<path d="M74.03 289.509L77.6879 321.514L76.4158 321.836L72.4531 290.153L74.03 289.509Z" fill="#14152E"/>
<path d="M61.2205 290.517L65.2418 323.16L61.0505 323.839L57.3691 290.979L61.2205 290.517Z" fill="#2A2D60"/>
<path d="M57.3718 290.979L61.0531 323.839L59.7752 324.161L55.7832 291.641L57.3718 290.979Z" fill="#14152E"/>
<path d="M210.464 299.153L208.77 357.753L205.68 356.904L203.945 297.701L210.464 299.153Z" fill="#14152E"/>
<path d="M208.77 357.753L211.15 356.64L213.195 298.222L210.464 299.153L208.77 357.753Z" fill="#2A2D60"/>
<path d="M173.838 274.245C173.838 274.245 177.654 305.284 178.059 309.81C178.463 314.342 177.367 346.159 177.367 346.159L175.409 346.967C175.409 346.967 175.175 314.154 174.794 310.963C174.413 307.778 168.615 274.239 168.615 274.239H173.838V274.245Z" fill="#2A2D60"/>
<path d="M214.953 300.324C214.953 300.324 197.197 299.013 188.439 297.157C179.78 295.324 174.141 292.332 174.141 292.332L172.764 288.391C172.764 288.391 186.698 292.917 193.738 294.27C200.849 295.634 212.444 295.218 214.53 296.507C216.623 297.801 214.947 300.318 214.947 300.318L214.953 300.324Z" fill="#14152E"/>
<path d="M175.05 287.77C175.05 287.77 185.033 292.449 197.783 294.129C210.744 295.833 215.896 295.101 217.643 296.407C219.39 297.713 218.394 299.668 218.394 299.668L214.947 300.33C214.947 300.33 214.9 297.596 211.447 297.174C208.012 296.747 196.094 295.593 189.377 293.907C181.035 291.811 172.758 288.403 172.758 288.403L175.038 287.776L175.05 287.77Z" fill="#2A2D60"/>
<path d="M168.965 275.814L42.1582 288.409L42.7796 293.749L169.68 279.497L168.965 275.814Z" fill="#2A2D60"/>
<path d="M175.038 306.425L45.9805 325.654L46.6136 331.275L175.771 310.94L175.038 306.425Z" fill="#2A2D60"/>
<path d="M207.736 319.073L206.833 325.894L69.9375 352.577L69.8262 345.111L207.736 319.073Z" fill="#2A2D60"/>
<path d="M207.732 318.798L64.3358 346.048L42.8164 335.479L178.123 313.551L207.732 318.798Z" fill="#2A2D60"/>
<path d="M69.92 345.474L208.533 319.453L208.304 318.657L69.7324 344.748L69.92 345.474Z" fill="#14152E"/>
<path d="M63.2969 345.146L45.8633 336.914L45.9688 344.502L62.8514 353.572L63.2969 345.146Z" fill="#14152E"/>
<path d="M58.4859 343.688C58.4859 343.688 58.5211 343.688 58.5387 343.688L199.971 317.948C200.153 317.913 200.27 317.767 200.229 317.626C200.188 317.48 200.012 317.392 199.825 317.421L58.4156 343.208C58.2632 343.237 58.1694 343.366 58.1987 343.501C58.228 343.618 58.3453 343.7 58.4742 343.7L58.4859 343.688Z" fill="#14152E"/>
<path d="M53.1266 340.766C53.1266 340.766 53.1617 340.766 53.1793 340.766L189.524 316.069C189.706 316.034 189.823 315.893 189.782 315.747C189.747 315.601 189.565 315.513 189.389 315.542L53.0679 340.281C52.9155 340.31 52.8217 340.439 52.8511 340.573C52.8804 340.69 52.9976 340.772 53.1266 340.772V340.766Z" fill="#14152E"/>
<path d="M48.3727 338.354C48.3727 338.354 48.4078 338.354 48.4254 338.354L181.886 314.681C182.068 314.652 182.179 314.506 182.144 314.359C182.109 314.213 181.933 314.125 181.751 314.154L48.314 337.868C48.1616 337.898 48.0678 338.026 48.0971 338.155C48.1265 338.272 48.2437 338.354 48.3727 338.354Z" fill="#14152E"/>
<path d="M42.3461 286.529C42.3461 286.529 46.174 324.366 46.5843 329.887C46.9947 335.409 45.8809 374.136 45.8809 374.136L43.9113 375.078C43.9113 375.078 43.6885 335.257 43.3075 331.363C42.9264 327.475 37.0996 286.447 37.0996 286.447L42.352 286.529H42.3461Z" fill="#2A2D60"/>
<path d="M37.0949 286.453C37.0949 286.453 42.8807 325.086 43.2969 331.24C43.7131 337.4 43.9066 375.084 43.9066 375.084L41.5852 374.077C41.5852 374.077 39.6976 332.914 39.3283 330.01C38.959 327.106 34.5039 288.186 34.5039 288.186L37.0891 286.453H37.0949Z" fill="#14152E"/>
<g clip-path="url(#clip0_440_4082)">
<path d="M108.86 302.83L107.859 297.49C107.083 293.384 107.305 289.66 108.521 286.348C109.737 283.037 112.353 279.396 116.34 275.501C119.521 272.393 121.746 269.742 123.008 267.548C124.276 265.347 124.723 263.068 124.345 260.691C124.042 258.799 122.958 257.5 121.085 256.789C119.204 256.079 116.896 256.047 114.153 256.701C107.338 258.325 99.7879 262.672 91.5526 269.724L77.9915 253.181C88.2982 243.721 99.8146 237.519 112.393 234.649C122.644 232.313 130.96 232.835 137.346 236.165C143.631 239.445 147.233 244.958 148.22 252.637C148.92 258.049 148.305 262.976 146.39 267.445C144.494 271.877 141.142 276.438 136.341 281.128C132.299 285.138 129.823 287.937 128.902 289.541C127.981 291.146 127.671 292.84 127.956 294.624L128.466 297.773L108.853 302.83L108.86 302.83ZM110.118 324.548C109.428 320.954 110.017 317.855 111.903 315.273C113.789 312.683 116.932 310.81 121.31 309.665C125.688 308.52 128.873 308.734 131.422 310.158C133.956 311.57 135.491 314.065 136.045 317.613C136.599 321.161 135.888 324.139 133.944 326.654C131.999 329.161 129.09 330.938 125.189 332.002C121.287 333.066 117.811 333.033 115.16 331.78C112.494 330.52 110.806 328.113 110.126 324.547L110.118 324.548Z" fill="#191A39"/>
</g>
<path d="M68.9134 321.544L67.6472 390.876L63.9306 389.043L61.7852 318.681L68.9134 321.544Z" fill="#14152E"/>
<path d="M67.6466 390.876L69.6221 389.6L71.1814 320.502L67.4707 320.285L67.6466 390.876Z" fill="#2A2D60"/>
<path d="M72.648 323.031C72.648 323.031 58.802 320.449 51.9551 317.193C44.1528 313.475 39.9673 308.346 39.9673 308.346L38.8066 303.644C38.8066 303.644 50.4955 312.134 56.3751 313.885C62.3074 315.653 70.5553 316.936 72.2963 318.511C74.0373 320.086 72.648 323.031 72.648 323.031Z" fill="#14152E"/>
<path d="M42.0952 303.527C42.0952 303.527 49.1003 311.531 59.7457 313.791C70.5494 316.086 73.4218 316.865 74.8814 318.446C76.3411 320.027 76.3762 322.328 76.3762 322.328L72.6539 323.025C72.6539 323.025 72.4018 320.285 69.7405 319.213C66.3053 317.825 59.7926 316.994 52.4768 314.224C45.4952 311.584 38.8125 303.638 38.8125 303.638L42.0952 303.527Z" fill="#2A2D60"/>
<path d="M155.395 10.3479C155.395 10.3479 156.186 14.1011 157.212 15.4478C158.238 16.7946 159.938 18.1705 166.175 18.1705C172.412 18.1705 177.746 17.4679 184.781 16.8004C191.815 16.1329 194.424 15.7933 198.738 14.2592C203.053 12.7251 203.955 11.841 204.753 10.5294C205.55 9.21783 204.301 5.81592 204.301 5.81592" fill="#FFE2B2"/>
<path d="M156.076 1.62339L206.548 0.00147882C207.949 -0.0453633 209.139 1.02615 209.232 2.42556L209.573 7.43767C209.666 8.81366 208.67 10.0257 207.298 10.2014L155.495 16.771C153.936 16.9701 152.559 15.758 152.559 14.1888V4.22898C152.559 2.78859 153.725 1.62339 155.167 1.62339H156.076Z" fill="#1A1C3C"/>
<path d="M57.9101 22.0817C75.4082 15.5531 98.4166 11.0035 126.29 8.56187C141.074 7.26786 153.127 6.94581 159.036 6.8697L204.753 3.35068H159.065C158.42 3.35068 143.073 3.25699 122.398 5.06627C94.5242 7.50792 71.5158 12.0575 54.0177 18.5861C25.8097 29.1139 10.293 53.6709 10.3106 87.731V316.678H14.2088V91.2266C14.1912 57.1606 29.708 32.6095 57.9101 22.0817Z" fill="#2A2D60"/>
<path d="M19.1038 87.7249C19.1038 83.8195 19.0921 71.9333 23.9048 59.3854C29.8957 43.7577 41.0629 32.7966 57.0896 26.8184C97.133 11.8758 158.379 12.1334 158.995 12.1393L159.036 6.87537C153.127 6.95148 141.075 7.27352 126.291 8.56754C98.4168 11.0092 75.4084 15.5587 57.9103 22.0874C29.7082 32.6034 14.1856 57.1604 14.209 91.2264V316.678H19.1038V87.7249Z" fill="#1A1C3C"/>
<path d="M24.7543 319.395L20.4164 316.678H16.0433H13.0361H8.66307L4.31932 319.395L2.18555 398.342L13.0361 399.63H16.0433L26.8646 397.51L24.7543 319.395Z" fill="#2A2D60"/>
<path d="M18.6119 398.435L0 396.157V399.103L18.6119 401.38V398.435Z" fill="#1A1C3C"/>
<path d="M4.32031 319.395L20.4174 316.678L24.7553 319.395L26.8656 397.51L18.6705 399.63L14.2095 319.395H4.32031Z" fill="#161732"/>
<path d="M18.6113 398.435L29.2333 394.389V397.334L18.6113 401.38V398.435Z" fill="#14152E"/>
<path d="M20.3008 501.493L156.862 18.4559L204.381 11.0742L967.001 513.95L20.3008 501.493Z" fill="url(#paint0_linear_440_4082)" fill-opacity="0.1"/>
<defs>
<linearGradient id="paint0_linear_440_4082" x1="173.932" y1="11.0726" x2="285.118" y2="474.273" gradientUnits="userSpaceOnUse">
<stop stop-color="#FFE2B2"/>
<stop offset="1" stop-color="#FFE2B2" stop-opacity="0"/>
</linearGradient>
<clipPath id="clip0_440_4082">
<rect width="70" height="99" fill="white" transform="translate(76.5156 237.497) rotate(-5.37555)"/>
</clipPath>
</defs>
</svg>
