<?xml version="1.0" encoding="utf-8"?>
<!-- Generator: Adobe Illustrator 19.2.1, SVG Export Plug-In . SVG Version: 6.00 Build 0)  -->
<svg version="1.1" id="Layer_1" xmlns="http://www.w3.org/2000/svg" xmlns:xlink="http://www.w3.org/1999/xlink" x="0px" y="0px"
	 viewBox="0 0 157.7 96.1" style="enable-background:new 0 0 157.7 96.1;" xml:space="preserve">
<style type="text/css">
	.st0{clip-path:url(#SVGID_2_);fill:#151514;}
	.st1{clip-path:url(#SVGID_2_);fill:#8b1e41;}
</style>
<g>
	<defs>
		<rect id="SVGID_1_" width="157.7" height="96.1"/>
	</defs>
	<clipPath id="SVGID_2_">
		<use xlink:href="#SVGID_1_"  style="overflow:visible;"/>
	</clipPath>
	<path class="st0" d="M12.9,59.2c0.1,0,0.2,0.3,0.2,0.8l0.2,7.7c0,1.5-1.2,1-1.2,1.6c0,0.1,0,0.2,0.2,0.2c0.5,0,1.1-0.1,1.8-0.1
		c0.8,0,1.5,0.1,1.9,0.1c0.2,0,0.5,0,0.5-0.2c0-0.7-1.5,0-1.6-1.6l-0.3-9.9c-0.1-2.4,1.5-1.5,1.5-2.1c0-0.1-0.1-0.2-0.2-0.2
		c-0.3,0-0.5,0.1-1,0.1c-0.1,0-0.7-0.1-0.9-0.1c-0.2,0-0.4,0.5-0.5,0.7l-4.7,9.5c-0.3,0.7-0.5,1.1-0.6,1.1c-0.1,0-0.2-0.2-0.4-0.6
		L2.9,56c-0.1-0.2-0.1-0.6-0.4-0.6c-0.4,0-0.7,0.1-1.1,0.1c-0.4,0-0.7-0.1-1.1-0.1c-0.2,0-0.3,0-0.3,0.2c0,0.7,1.9-0.4,1.9,4.2
		c0,2.1-0.2,4.2-0.5,7.5C1.3,69.4,0,68.6,0,69.3c0,0.1,0.1,0.2,0.2,0.2c0.4,0,0.7-0.1,1.7-0.1c0.6,0,1.5,0.1,1.7,0.1
		c0.3,0,0.5,0,0.5-0.2c0-0.7-1.9,0.2-1.8-2.5l0.2-7c0-0.2,0.1-0.3,0.1-0.3c0.1,0,0.2,0.1,0.2,0.2l4.2,8.9c0.1,0.1,0.2,0.6,0.4,0.6
		c0.2,0,0.5-0.8,0.6-1l4.1-8.4C12.6,59.4,12.7,59.2,12.9,59.2"/>
	<path class="st0" d="M23.7,55.9c3.9,0,6.3,3.5,6.3,7.1c0,3.7-2.3,6-5.2,6c-3.9,0-6.3-3.6-6.3-7.2C18.4,58.7,20.3,55.9,23.7,55.9
		 M23.9,69.6c4.4,0,7.5-2.9,7.5-7.4c0-4.1-3.1-7-7.2-7c-4.1,0-7.3,3-7.3,7.1C17,66.6,19.6,69.6,23.9,69.6"/>
	<path class="st0" d="M33.1,57v6.7c0,3.1,1,6,6.2,6c5.8,0,5.5-4.9,5.5-5.9v-6.2c0-1.8,1.2-1.4,1.2-1.9c0-0.1-0.2-0.2-0.3-0.2
		c-0.4,0-0.7,0.1-1.1,0.1c-0.8,0-1.5-0.1-2.3-0.1c-0.1,0-0.2,0.1-0.2,0.2c0,0.8,1.8-0.1,1.8,1.9V64c0,2.3-0.9,4.8-4.6,4.8
		c-2.7,0-4.7-1.4-4.7-4.6v-7.1c0-1.4,1.3-0.9,1.3-1.4c0-0.2-0.5-0.2-0.6-0.2c-0.6,0-1.3,0.1-1.9,0.1c-0.5,0-1-0.1-1.5-0.1
		c-0.1,0-0.4,0.1-0.4,0.2C31.5,56.3,33.1,55.8,33.1,57"/>
	<path class="st0" d="M59.2,69.6c0.2,0,0.2-0.3,0.2-0.9V57.2c0-1.4,1.2-1.1,1.2-1.6c0-0.1-0.1-0.2-0.2-0.2c-0.5,0-1.3,0.1-2,0.1
		c-0.6,0-1.2-0.1-1.8-0.1c-0.1,0-0.2,0.1-0.2,0.2c0,0.7,2.2-0.1,2.2,2.5v8.3c0,0.2,0,0.2-0.1,0.2c0,0-0.1-0.1-0.2-0.2l-9.5-10.5
		c-0.1-0.1-0.3-0.5-0.5-0.5c-0.3,0-0.6,0.1-0.9,0.1c-0.3,0-0.6-0.1-0.9-0.1c-0.1,0-0.3,0.1-0.3,0.2c0,0.7,2.4-0.4,2.4,3.7v7.3
		c0,2.8-1.7,1.9-1.7,2.6c0,0.1,0,0.2,0.3,0.2c0.1,0,1.2-0.1,1.9-0.1c1,0,1.5,0.1,2,0.1c0.2,0,0.2-0.2,0.2-0.3c0-0.5-1.7,0.2-1.7-1.6
		v-8.1c0-0.4,0.1-0.5,0.1-0.5c0.1,0,0.4,0.3,0.4,0.4l8.5,9.6C58.9,69.5,59.1,69.6,59.2,69.6"/>
	<path class="st0" d="M68.5,67.6V57.5c0-1.1-0.1-1,0.8-1h2.8c2,0,1,1.5,1.7,1.5c0.3,0,0.2-0.2,0.2-0.4L73.9,56
		c0-0.5-0.1-0.6-0.6-0.6c-0.4,0-2.2,0.1-5.8,0.1c-2.6,0-4.1-0.1-5.6-0.1c-0.4,0-0.3,0.5-0.4,0.8l-0.2,1.9c0,0.1,0.1,0.2,0.2,0.2
		c0.3,0,0.3-0.3,0.3-0.5c0.4-1.1,0.4-1.4,1.6-1.4h3.2c0.3,0,0.2,0.8,0.2,0.9v10.3c0,1.2-1.6,1-1.6,1.5c0,0.2,0.1,0.3,0.2,0.3
		c0.1,0,0.5-0.1,2.7-0.1c0.6,0,1.1,0.1,1.6,0.1c0.2,0,0.2-0.2,0.2-0.2C70.1,68.6,68.5,69.3,68.5,67.6"/>
	<path class="st0" d="M86.1,55.8c2.6,0,4,1.3,5.2,3.4c0.1,0.1,0.2,0.7,0.5,0.7c0.3,0,0.2-0.7,0.1-1.7c-0.1-1.3-0.1-1.6-0.3-1.6
		c-0.2,0-0.3,0.2-0.5,0.2c-0.6,0-1.6-1.5-5.3-1.5c-4.2,0-7.2,3.4-7.2,7.5c0,4.1,2.9,6.9,7,6.9c4.5,0,5.9-1.5,5.9-1.6l0.5-2
		c0-0.1-0.1-0.2-0.2-0.2c-0.1,0-0.2,0.1-0.3,0.3C91.2,67,89.3,69,86.1,69c-3.8,0-5.8-3.5-5.8-6.9C80.3,58.4,82.2,55.8,86.1,55.8"/>
	<path class="st0" d="M101,63.1h-3.9c-0.3,0-0.4-0.1-0.3-0.4l2.2-4.8c0.1-0.2,0.2-0.2,0.3,0l1.9,4.8C101.5,63,101.5,63.1,101,63.1
		 M102.3,69.3c0,0.2,0.3,0.2,0.4,0.2c0.5,0,1.1-0.1,1.6-0.1c0.8,0,1.6,0.1,2.4,0.1c0.1,0,0.3,0,0.3-0.2c0-0.5-1.1-0.1-1.7-1
		c-0.5-0.7-0.7-1.5-1-2.3l-4.1-10.2c-0.1-0.2-0.2-0.7-0.4-0.7c-0.3,0-0.3,0.3-1.5,2.8l-4.7,10.1c-0.5,1.1-1.4,0.8-1.4,1.2
		c0,0.1,0.1,0.2,0.2,0.2c0.5,0,1.1-0.1,1.6-0.1c0.6,0,1.1,0.1,1.7,0.1c0.3,0,0.5,0.1,0.5-0.3c0-0.5-1.4,0.1-1.4-1.3
		c0-0.3,0.1-0.6,0.1-0.7l1.3-2.8C96.2,64,96.6,64,97,64h4.4c0.6,0,0.7,0.3,0.9,0.8l0.6,1.6c0.2,0.5,0.6,1.4,0.6,1.9
		C103.5,69,102.3,68.8,102.3,69.3"/>
	<path class="st0" d="M112.4,62.1c-0.9,0-2.2,0.1-2.2-0.3v-5c0-0.8,0.4-0.7,1.1-0.7c2,0,3.8,0.8,3.8,3.2
		C115.2,61.8,113.3,62.1,112.4,62.1 M117.5,67.3l-3.3-5c1.4-0.6,2.5-1.9,2.5-3.4c0-3.8-4.4-3.4-4.7-3.4c-1,0-2.2,0.1-3.3,0.1
		c-1,0-0.9-0.1-1.3-0.1c-0.2,0-0.4,0.1-0.4,0.2c0,0.7,1.7-0.1,1.7,1.8v10.1c0,1.5-1.4,1.2-1.4,1.7c0,0.1,0.1,0.2,0.2,0.2
		c0.8,0,1.5-0.1,2.3-0.1c1.6,0,2.1,0.1,2.3,0.1c0.2,0,0.3,0,0.3-0.2c0-0.7-2.1-0.1-2.1-1.8v-4.2c0-0.2-0.1-0.6,0.5-0.6
		c2.2,0,1.9-0.1,2.6,1.1l2.2,3.5c0.8,1.1,1.5,2.1,3,2.1c0.2,0,1.3,0,1.3-0.2C119.9,68.8,118.9,69.5,117.5,67.3"/>
	<path class="st0" d="M122.5,55.4c-0.4,0-0.7,0.1-1.1,0.1c-0.4,0-0.7-0.1-1.1-0.1c-0.2,0-0.3,0-0.3,0.2c0,0.7,1.9-0.4,1.9,4.2
		c0,2.1-0.2,4.2-0.5,7.5c-0.1,2.1-1.4,1.3-1.4,1.9c0,0.1,0.1,0.2,0.2,0.2c0.4,0,0.7-0.1,1.7-0.1c0.6,0,1.5,0.1,1.7,0.1
		c0.3,0,0.5,0,0.5-0.2c0-0.7-1.9,0.2-1.8-2.5l0.2-7c0-0.2,0.1-0.3,0.1-0.3c0.1,0,0.2,0.1,0.2,0.2l4.2,8.9c0.1,0.1,0.2,0.6,0.4,0.6
		c0.2,0,0.5-0.8,0.6-1l4.1-8.4c0.2-0.4,0.4-0.6,0.5-0.6c0.1,0,0.2,0.3,0.2,0.8l0.2,7.7c0,1.5-1.2,1-1.2,1.6c0,0.1,0,0.2,0.2,0.2
		c0.5,0,1.1-0.1,1.7-0.1c0.8,0,1.5,0.1,1.9,0.1c0.2,0,0.5,0,0.5-0.2c0-0.7-1.5,0-1.6-1.6l-0.3-9.9c-0.1-2.4,1.5-1.5,1.5-2.1
		c0-0.1-0.1-0.2-0.2-0.2c-0.3,0-0.5,0.1-1,0.1c-0.1,0-0.7-0.1-0.9-0.1c-0.2,0-0.4,0.5-0.5,0.7l-4.7,9.5c-0.3,0.7-0.5,1.1-0.6,1.1
		c-0.1,0-0.2-0.2-0.4-0.6L122.9,56C122.8,55.8,122.7,55.4,122.5,55.4"/>
	<path class="st0" d="M137.4,56c1.1,0.2,1.1,1.1,1.1,2v9.1c0,0.9,0,1.5-0.6,1.7c-0.6,0.3-0.8,0.3-0.9,0.5c0,0.2,0.1,0.2,0.3,0.2
		c0.8,0,1.6-0.1,2.4-0.1c1.5,0,3,0.1,4.5,0.1c0.9,0,1.3,0,1.9-0.7c0.5-0.5,1-1.2,1-1.9c0,0,0-0.2-0.2-0.2c-0.3,0-0.9,2-5.5,2
		c-1.7,0-1.5-0.5-1.5-1.6v-3.7c0-0.3-0.1-0.6,0.4-0.6h2.9c1.7,0,1,1.7,1.6,1.7c0.1,0,0.2-0.1,0.2-0.3c0-0.5,0-1.1,0-1.6
		c0-0.6,0-1.3,0-2c0-0.2-0.1-0.4-0.2-0.4c-0.5,0,0.1,1.6-2,1.6h-2.1c-0.8,0-0.8,0-0.8-0.7v-3.7c0-1.3,0-1.2,1.9-1.2
		c0.8,0,2.9-0.1,3.4,0.6c0.3,0.5,0,1.4,0.5,1.4c0.1,0,0.4-0.2,0.4-2.4c0-0.2,0-0.4-0.2-0.4c-0.6,0-2.4,0.1-2.8,0.1
		c-0.8,0-1.9-0.1-5.6-0.1c-0.6,0-0.7,0.1-0.7,0.2C136.8,55.9,137.3,55.9,137.4,56"/>
	<path class="st0" d="M157.5,66.7c-0.3,0-0.9,2-5.5,2c-1.7,0-1.5-0.5-1.5-1.6v-9.7c0-1.7,1.5-1.2,1.5-1.7c0-0.2-0.1-0.3-0.4-0.3
		c-0.3,0-0.8,0.1-1.9,0.1c-1,0-1.6-0.1-2-0.1c-0.3,0-0.4,0-0.4,0.3c0,0.4,1.7,0.3,1.7,1.3v10.1c0,0.9,0,1.5-0.6,1.7
		c-0.6,0.3-0.8,0.3-0.9,0.5c0,0.2,0.1,0.2,0.3,0.2c0.8,0,1.6-0.1,2.4-0.1c1.5,0,3,0.1,4.5,0.1c0.9,0,1.3,0,1.9-0.7
		c0.5-0.5,1-1.2,1-1.9C157.7,66.9,157.7,66.7,157.5,66.7"/>
	<path class="st0" d="M22.1,88.5c-0.1,0-0.2,0.1-0.3,0.3c-0.3,0.9-2.2,2.9-5.4,2.9c-3.8,0-5.8-3.5-5.8-6.9c0-3.7,1.9-6.3,5.7-6.3
		c2.6,0,4,1.3,5.2,3.4c0.1,0.1,0.2,0.7,0.5,0.7c0.3,0,0.2-0.7,0.1-1.7c-0.1-1.3-0.1-1.6-0.3-1.6c-0.2,0-0.3,0.2-0.5,0.2
		c-0.6,0-1.6-1.5-5.3-1.5c-4.2,0-7.2,3.4-7.2,7.5c0,4.1,2.9,6.9,7,6.9c4.5,0,5.9-1.5,5.9-1.6l0.5-2C22.3,88.6,22.2,88.5,22.1,88.5"
		/>
	<path class="st0" d="M27.4,91.8c-2.3,0-3.2-2.5-3.2-4.5c0-1.7,0.8-3.4,2.7-3.4c2.4,0,3.2,2.2,3.2,4.3
		C30.2,90.7,29.1,91.8,27.4,91.8 M27.2,83.5c-2.5,0-4.4,2.1-4.4,4.5c0,2.7,1.9,4.2,4.4,4.2c2.4,0,4.3-1.9,4.3-4.3
		C31.5,84.3,28.7,83.5,27.2,83.5"/>
	<path class="st0" d="M35.1,90.5v-13c0-0.2-0.1-0.3-0.2-0.3c-0.5,0-0.9,0.6-2.4,1c-0.1,0-0.2,0.1-0.2,0.2c0,0.4,1.3-0.1,1.3,1.1
		v11.2c0,0.9-1,0.8-1,1.1c0,0.2,0.1,0.3,0.2,0.3c0.2,0,0.6-0.1,1.6-0.1c0.9,0,1.5,0.1,1.8,0.1c0.3,0,0.5,0,0.5-0.3
		C36.7,91.3,35.1,91.9,35.1,90.5"/>
	<path class="st0" d="M40,90.5v-13c0-0.2-0.1-0.3-0.2-0.3c-0.5,0-0.9,0.6-2.4,1c-0.1,0-0.2,0.1-0.2,0.2c0,0.4,1.3-0.1,1.3,1.1v11.2
		c0,0.9-1,0.8-1,1.1c0,0.2,0.1,0.3,0.2,0.3c0.2,0,0.6-0.1,1.5-0.1c0.9,0,1.5,0.1,1.8,0.1c0.3,0,0.5,0,0.5-0.3
		C41.6,91.3,40,91.9,40,90.5"/>
	<path class="st0" d="M45.6,84c1.1,0,2.2,1,2.2,2.1c0,0.3-0.1,0.4-0.4,0.4h-3.9C43.5,85.4,44.4,84,45.6,84 M49.5,90.2
		c-0.4,0-1.1,1-2.8,1c-1.2,0-3.2-1-3.2-4.2h5.3c0.5,0,0.7,0,0.7-0.3c0-0.8-1.1-3.2-3.5-3.2c-2.5,0-3.9,2.1-3.9,4.7
		c0,1.3,1,4.1,4,4.1c1.8,0,3.5-1.4,3.5-1.9C49.6,90.3,49.6,90.2,49.5,90.2"/>
	<path class="st0" d="M54,89.1c-1.5,0-2-1.4-2-2.7c0-1.3,0.5-2.4,1.9-2.4c1.5,0,2,1.5,2,2.8C55.9,88,55.3,89.1,54,89.1 M52,92.5
		c0.2,0,0.4,0.1,2.1,0.2c2,0.1,2.7,0.1,2.7,0.9c0,0.7-0.6,2-3.3,2c-1.1,0-2.5-0.3-2.5-1.7C51.1,93.4,51.4,92.5,52,92.5 M57.9,83
		c-0.3,0-0.4,1.3-1.3,1.3c-0.6,0-1.2-0.8-2.8-0.8c-1.8,0-3.2,1.3-3.2,3.1c0,1,0.5,1.9,1.3,2.4v0c0,0-1,0.8-1,1.6
		c0,0.7,0.2,1.4,0.8,1.6c-0.7,0.3-1.4,0.9-1.4,1.7c0,1.6,2.1,2.1,3.4,2.1c3.3,0,4.4-1.7,4.4-2.9c0-2-2.2-1.8-3.9-1.8
		c-2.5,0-2.3-0.8-2.3-1c0-0.5,0.5-1.1,1-1.1c0.3,0,0.4,0.2,1.4,0.2c1.8,0,3.3-1.2,3.3-3c0-0.4-0.1-0.7-0.1-1.1c0.7-0.5,1-0.5,1-2.1
		C58.1,83.2,58.1,83,57.9,83"/>
	<path class="st0" d="M62,84c1.1,0,2.2,1,2.2,2.1c0,0.3-0.1,0.4-0.4,0.4h-3.9C59.9,85.4,60.8,84,62,84 M65.9,90.2
		c-0.4,0-1.1,1-2.8,1c-1.2,0-3.2-1-3.2-4.2h5.3c0.5,0,0.7,0,0.7-0.3c0-0.8-1.1-3.2-3.5-3.2c-2.5,0-3.9,2.1-3.9,4.7
		c0,1.3,1,4.1,4,4.1c1.8,0,3.5-1.4,3.5-1.9C66,90.3,66,90.2,65.9,90.2"/>
	<path class="st0" d="M75.6,91.8c-2.3,0-3.2-2.5-3.2-4.5c0-1.7,0.8-3.4,2.7-3.4c2.4,0,3.2,2.2,3.2,4.3
		C78.4,90.7,77.3,91.8,75.6,91.8 M75.4,83.5c-2.5,0-4.4,2.1-4.4,4.5c0,2.7,1.9,4.2,4.4,4.2c2.4,0,4.3-1.9,4.3-4.3
		C79.8,84.3,77,83.5,75.4,83.5"/>
	<path class="st0" d="M85.8,77.5c-1.4,0-2.8,1.4-3.2,2.1c-0.8,1.3-1.2,2.7-1.2,4.2h-1.2L80,84.6h1.3v6.2c0,1-1,0.7-1,1.1
		c0,0.2,0.2,0.1,0.3,0.1h3.1c0.2,0,0.4,0.1,0.4-0.2c0-0.4-1.4,0-1.4-1.2v-6h1.9l0.4-0.7c0.1-0.1,0.1-0.2,0.1-0.3
		c0-0.1,0-0.2-0.1-0.2c-0.1,0-0.3,0.3-0.8,0.3h-1.5c0-1.1,0-2.2,0.2-3.3c0.2-0.9,0.9-2,1.9-2c1.2,0,1.1,0.8,1.3,0.8
		c0.2,0,0.3-1,0.3-1.4C86.6,77.5,86,77.5,85.8,77.5"/>
	<path class="st0" d="M103.2,78.1c-0.5,0-1.3,0.1-2,0.1c-0.6,0-1.2-0.1-1.8-0.1c-0.1,0-0.2,0.1-0.2,0.2c0,0.7,2.2-0.1,2.2,2.5v8.3
		c0,0.2,0,0.2-0.1,0.2c0,0-0.1-0.1-0.2-0.2l-9.5-10.5c-0.1-0.1-0.3-0.5-0.5-0.5c-0.3,0-0.6,0.1-0.9,0.1c-0.3,0-0.6-0.1-0.9-0.1
		c-0.1,0-0.3,0.1-0.3,0.2c0,0.7,2.4-0.4,2.4,3.7v7.3c0,2.8-1.7,1.9-1.7,2.6c0,0.1,0,0.2,0.3,0.2c0.1,0,1.2-0.1,1.9-0.1
		c1,0,1.5,0.1,2,0.1c0.2,0,0.2-0.2,0.2-0.3c0-0.5-1.7,0.2-1.7-1.6v-8.1c0-0.4,0.1-0.5,0.1-0.5c0.1,0,0.4,0.3,0.4,0.4l8.5,9.6
		c0.4,0.5,0.6,0.6,0.8,0.6c0.2,0,0.2-0.3,0.2-0.9V79.8c0-1.4,1.2-1.1,1.2-1.6C103.4,78.1,103.3,78.1,103.2,78.1"/>
	<path class="st0" d="M112.3,91.2v-6.9c0-0.4-0.3-0.5-0.4-0.5c-0.3,0-0.5,0.1-0.7,0.1c-0.2,0.1-0.5,0.1-1.1,0.1
		c-0.1,0-0.4,0-0.4,0.2c0,0.5,1.1,0,1.1,0.8v5.2c0,0.6-1,1.4-2.2,1.4c-0.3,0-1.9-0.1-1.9-2.2v-5c0-0.4-0.3-0.5-0.4-0.5
		c-0.3,0-0.5,0.1-0.7,0.1c-0.2,0.1-0.5,0.1-1.1,0.1c-0.1,0-0.4,0-0.4,0.2c0,0.5,1.1,0,1.1,0.8v4.6c0,1.7,1.3,2.7,2.9,2.7
		c1.1,0,2-0.5,2.6-1.4h0V92c0,0.1,0,0.3,0.2,0.3c0.3,0,0.5-0.1,0.7-0.1c0.2,0,0.5-0.1,1.1-0.1c0.3,0,0.7,0,0.7-0.2
		C113.6,91.4,112.3,91.7,112.3,91.2"/>
	<path class="st0" d="M118.5,83.5c-0.8,0-1.6,1.1-2,1.6h0v-1.5c0-0.2-0.1-0.3-0.2-0.3c-0.5,0-0.9,0.6-2.4,1c-0.1,0-0.3,0.1-0.3,0.2
		c0,0.4,1.4-0.1,1.4,1.1v5.1c0,0.8-1,0.7-1,1.2c0,0.1,0.1,0.2,0.2,0.2c0.1,0,0.5-0.1,1.8-0.1c1.1,0,1.6,0.1,1.9,0.1
		c0.2,0,0.3,0,0.3-0.2c0-0.6-1.8,0.3-1.8-1.5V86c0-0.3,0.5-1.2,1.3-1.2c0.7,0,0.9,0.5,1.3,0.5c0.2,0,0.7-0.6,0.7-0.9
		C119.8,84,118.9,83.5,118.5,83.5"/>
	<path class="st0" d="M123.6,87.2c-2.1-0.8-2.6-1.3-2.6-1.9c0-0.8,0.6-1.3,1.4-1.3c1.8,0,2,1.7,2.2,1.7c0.3,0,0.2-0.2,0.2-0.8
		c0-0.1,0-0.8-0.1-1c-0.2-0.3-1.6-0.5-1.9-0.5c-1.5,0-2.7,0.8-2.7,2.4c0,1.4,1.3,1.9,2.4,2.5c0.8,0.4,1.8,0.7,1.8,1.7
		c0,1-0.8,1.6-1.8,1.6c-2.1,0-1.9-2.6-2.4-2.6c-0.3,0-0.2,0.6-0.2,1c0,1.6,0,1.6,0.4,1.6c0.5,0,0.8,0.6,2.2,0.6
		c1.5,0,2.7-1.2,2.7-2.7C125.2,88.3,124.7,87.7,123.6,87.2"/>
	<path class="st0" d="M128.8,90.8v-7.1c0-0.2-0.1-0.3-0.2-0.3c-0.5,0-0.9,0.6-2.1,1c-0.1,0-0.2,0.1-0.2,0.2c0,0.4,1.1-0.1,1.1,1.1
		v4.7c0,1.8-0.9,1.1-0.9,1.5c0,0.2,0.1,0.2,0.3,0.2c0.2,0,0.7-0.1,1.4-0.1c0.8,0,1.4,0.1,1.9,0.1c0.3,0,0.4-0.1,0.4-0.2
		C130.4,91.4,128.8,91.8,128.8,90.8"/>
	<path class="st0" d="M127.3,80.5c0,0.2,0.6,1,0.8,1c0.3,0,0.8-0.8,0.8-1c0-0.2-0.6-1.1-0.8-1.1C127.9,79.4,127.3,80.3,127.3,80.5"
		/>
	<path class="st0" d="M139.5,90.5v-3.3c0-1.5-0.6-3.7-3.2-3.7c-1.9,0-2.9,1.7-2.9,1.5v-1.3c0-0.2-0.1-0.3-0.2-0.3
		c-0.5,0-0.9,0.6-2.5,1c-0.1,0-0.2,0.1-0.2,0.2c0,0.4,1.5-0.1,1.5,1.1v4.9c0,1.3-1.2,0.9-1.2,1.3c0,0.2,0.1,0.2,0.4,0.2
		c0.2,0,0.6-0.1,1.7-0.1c1.2,0,1.5,0.1,1.9,0.1c0.3,0,0.4,0,0.4-0.3c0-0.5-1.7,0-1.7-1.3v-4.6c0-0.3,0.7-1.5,2.3-1.5
		c1.6,0,2.3,1.5,2.3,2.5v3.7c0,1.3-0.9,0.9-0.9,1.3c0,0.2,0.1,0.2,0.4,0.2c0.3,0,0.7-0.1,1.4-0.1c1,0,1.5,0.1,1.7,0.1
		c0.2,0,0.3,0,0.3-0.3C141.1,91.3,139.5,91.9,139.5,90.5"/>
	<path class="st0" d="M145,89.1c-1.5,0-2-1.4-2-2.7c0-1.3,0.5-2.4,1.9-2.4c1.5,0,2,1.5,2,2.8C146.9,88,146.4,89.1,145,89.1
		 M143.1,92.5c0.2,0,0.4,0.1,2.1,0.2c2,0.1,2.7,0.1,2.7,0.9c0,0.7-0.6,2-3.3,2c-1.1,0-2.5-0.3-2.5-1.7
		C142.1,93.4,142.5,92.5,143.1,92.5 M149,83c-0.3,0-0.4,1.3-1.3,1.3c-0.6,0-1.2-0.8-2.8-0.8c-1.8,0-3.2,1.3-3.2,3.1
		c0,1,0.5,1.9,1.3,2.4v0c0,0-1,0.8-1,1.6c0,0.7,0.2,1.4,0.8,1.6c-0.7,0.3-1.5,0.9-1.5,1.7c0,1.6,2.1,2.1,3.4,2.1
		c3.3,0,4.4-1.7,4.4-2.9c0-2-2.2-1.8-3.9-1.8c-2.5,0-2.3-0.8-2.3-1c0-0.5,0.5-1.1,1-1.1c0.3,0,0.4,0.2,1.4,0.2c1.8,0,3.3-1.2,3.3-3
		c0-0.4-0.1-0.7-0.1-1.1c0.7-0.5,1-0.5,1-2.1C149.1,83.2,149.2,83,149,83"/>
	<path class="st1" d="M53.5,30.9H37.2c0,0-0.7,2.3-0.9,3.1c-0.3,1.1-0.7,3.1-0.7,3.1h17.9V30.9z"/>
	<path class="st1" d="M53.4,38.2h-18c0,0-0.3,2.1-0.4,2.8c-0.1,1.1-0.2,3.4-0.2,3.4h18.6V38.2z"/>
	<path class="st1" d="M79,0c0,0-2.4,0.1-4,0.2c-1.5,0.2-3.8,0.5-3.8,0.5v13.6H79V0z"/>
	<path class="st1" d="M71.3,23.5L55.2,7.4c0,0-1.2,0.9-2,1.4c-0.9,0.7-2.2,1.7-2.2,1.7l20.3,20.3V23.5z"/>
	<path class="st1" d="M69.7,30.8L50.2,11.3c0,0-1.1,1.1-1.8,1.8c-0.7,0.7-1.9,1.9-1.9,1.9l16,15.9H69.7z"/>
	<path class="st1" d="M60.9,30.8L45.8,15.7c0,0-1,1.2-1.6,2c-0.6,0.8-1.6,2.1-1.6,2.1l10.9,10.9H60.9z"/>
	<path class="st1" d="M71.3,14.5L60.9,4.2c0,0-1.5,0.7-2.4,1.2c-0.9,0.5-2.3,1.4-2.3,1.4l15,15L71.3,14.5z"/>
	<path class="st1" d="M105.8,37.1h17.9c0,0-0.4-2-0.7-3.1c-0.2-0.8-0.9-3.1-0.9-3.1h-16.3V37.1z"/>
	<path class="st1" d="M105.8,44.5h18.6c0,0-0.1-2.3-0.2-3.4c-0.1-0.8-0.4-2.8-0.4-2.8h-18V44.5z"/>
	<path class="st1" d="M87.9,0.8c0,0-2.3-0.4-3.8-0.5c-1.5-0.2-4-0.2-4-0.2v14.4h7.8V0.8z"/>
	<path class="st1" d="M87.9,30.8l20.3-20.3c0,0-1.3-1.1-2.2-1.7c-0.8-0.6-2-1.4-2-1.4L87.9,23.5V30.8z"/>
	<path class="st1" d="M96.8,30.9l16-15.9c0,0-1.1-1.1-1.9-1.9c-0.7-0.7-1.8-1.8-1.8-1.8L89.5,30.9H96.8z"/>
	<path class="st1" d="M105.8,30.8l10.9-10.9c0,0-1-1.3-1.6-2.1c-0.6-0.8-1.6-2-1.6-2L98.4,30.8H105.8z"/>
	<path class="st1" d="M87.9,21.9l15-15c0,0-1.4-0.9-2.3-1.4c-0.9-0.5-2.4-1.2-2.4-1.2L87.9,14.5L87.9,21.9z"/>
</g>
</svg>
