<svg width="32" height="32" viewBox="0 0 32 32" fill="none" xmlns="http://www.w3.org/2000/svg">
<g clip-path="url(#clip0_42_2434)">
<path d="M27.5554 7.11108H20.4443V8.88886H27.5554V27.5555H20.4443V29.3333H29.3332V8.88886C29.3332 8.41737 29.1459 7.96518 28.8125 7.63178C28.4791 7.29839 28.0269 7.11108 27.5554 7.11108Z" fill="black"/>
<path d="M17.6712 2.66663H5.44011C4.94032 2.66663 4.46101 2.86516 4.1076 3.21857C3.7542 3.57197 3.55566 4.05128 3.55566 4.55107V29.3333H19.5557V4.55107C19.5557 4.05128 19.3571 3.57197 19.0037 3.21857C18.6503 2.86516 18.171 2.66663 17.6712 2.66663ZM17.7779 27.5555H15.1112V24.8888H8.00011V27.5555H5.33344V4.55107C5.33344 4.53706 5.3362 4.52319 5.34156 4.51025C5.34692 4.49731 5.35478 4.48555 5.36468 4.47565C5.37459 4.46574 5.38635 4.45788 5.39929 4.45252C5.41223 4.44716 5.4261 4.4444 5.44011 4.4444H17.6712C17.6852 4.4444 17.6991 4.44716 17.712 4.45252C17.725 4.45788 17.7367 4.46574 17.7466 4.47565C17.7565 4.48555 17.7644 4.49731 17.7698 4.51025C17.7751 4.52319 17.7779 4.53706 17.7779 4.55107V27.5555Z" fill="black"/>
<path d="M7.11133 7.11108H8.88911V8.88886H7.11133V7.11108Z" fill="black"/>
<path d="M10.6665 7.11108H12.4443V8.88886H10.6665V7.11108Z" fill="black"/>
<path d="M14.2222 7.11108H15.9999V8.88886H14.2222V7.11108Z" fill="black"/>
<path d="M7.11133 11.5555H8.88911V13.3333H7.11133V11.5555Z" fill="black"/>
<path d="M10.6665 11.5555H12.4443V13.3333H10.6665V11.5555Z" fill="black"/>
<path d="M14.2222 11.5555H15.9999V13.3333H14.2222V11.5555Z" fill="black"/>
<path d="M7.11133 16H8.88911V17.7778H7.11133V16Z" fill="black"/>
<path d="M10.6665 16H12.4443V17.7778H10.6665V16Z" fill="black"/>
<path d="M14.2222 16H15.9999V17.7778H14.2222V16Z" fill="black"/>
<path d="M7.11133 20.4445H8.88911V22.2222H7.11133V20.4445Z" fill="black"/>
<path d="M10.6665 20.4445H12.4443V22.2222H10.6665V20.4445Z" fill="black"/>
<path d="M14.2222 20.4445H15.9999V22.2222H14.2222V20.4445Z" fill="black"/>
<path d="M20.4443 11.5555H22.2221V13.3333H20.4443V11.5555Z" fill="black"/>
<path d="M24 11.5555H25.7778V13.3333H24V11.5555Z" fill="black"/>
<path d="M20.4443 16H22.2221V17.7778H20.4443V16Z" fill="black"/>
<path d="M24 16H25.7778V17.7778H24V16Z" fill="black"/>
<path d="M20.4443 20.4445H22.2221V22.2222H20.4443V20.4445Z" fill="black"/>
<path d="M24 20.4445H25.7778V22.2222H24V20.4445Z" fill="black"/>
</g>
<defs>
<clipPath id="clip0_42_2434">
<rect width="32" height="32" fill="white"/>
</clipPath>
</defs>
</svg>
