<svg width="32" height="32" viewBox="0 0 32 32" fill="none" xmlns="http://www.w3.org/2000/svg">
<path fill-rule="evenodd" clip-rule="evenodd" d="M9.33317 3.99996C8.97955 3.99996 8.64041 4.14044 8.39036 4.39048C8.14031 4.64053 7.99984 4.97967 7.99984 5.33329V24C7.99984 24.3536 8.14031 24.6927 8.39036 24.9428C8.64041 25.1928 8.97955 25.3333 9.33317 25.3333H16.6665V26.6666H9.33317C8.62593 26.6666 7.94765 26.3857 7.44755 25.8856C6.94746 25.3855 6.6665 24.7072 6.6665 24V5.33329C6.6665 4.62605 6.94746 3.94777 7.44755 3.44767C7.94765 2.94758 8.62593 2.66663 9.33317 2.66663H22.6665C23.3737 2.66663 24.052 2.94758 24.5521 3.44767C25.0522 3.94777 25.3332 4.62605 25.3332 5.33329V24C25.3332 24.7072 25.0522 25.3855 24.5521 25.8856C24.052 26.3857 23.3737 26.6666 22.6665 26.6666H20.6665V25.3333H22.6665C23.0201 25.3333 23.3593 25.1928 23.6093 24.9428C23.8594 24.6927 23.9998 24.3536 23.9998 24V5.33329C23.9998 4.97967 23.8594 4.64053 23.6093 4.39048C23.3593 4.14044 23.0201 3.99996 22.6665 3.99996H9.33317Z" fill="black"/>
<path fill-rule="evenodd" clip-rule="evenodd" d="M11.9997 7.33329C11.9997 7.15648 12.0699 6.98691 12.1949 6.86189C12.32 6.73686 12.4895 6.66663 12.6663 6.66663H19.333C19.5098 6.66663 19.6794 6.73686 19.8044 6.86189C19.9294 6.98691 19.9997 7.15648 19.9997 7.33329C19.9997 7.5101 19.9294 7.67967 19.8044 7.8047C19.6794 7.92972 19.5098 7.99996 19.333 7.99996H12.6663C12.4895 7.99996 12.32 7.92972 12.1949 7.8047C12.0699 7.67967 11.9997 7.5101 11.9997 7.33329ZM9.33301 11.3333C9.33301 11.1565 9.40325 10.9869 9.52827 10.8619C9.65329 10.7369 9.82286 10.6666 9.99967 10.6666H21.9997C22.1765 10.6666 22.3461 10.7369 22.4711 10.8619C22.5961 10.9869 22.6663 11.1565 22.6663 11.3333C22.6663 11.5101 22.5961 11.6797 22.4711 11.8047C22.3461 11.9297 22.1765 12 21.9997 12H9.99967C9.82286 12 9.65329 11.9297 9.52827 11.8047C9.40325 11.6797 9.33301 11.5101 9.33301 11.3333ZM9.33301 14C9.33301 13.8231 9.40325 13.6536 9.52827 13.5286C9.65329 13.4035 9.82286 13.3333 9.99967 13.3333H21.9997C22.1765 13.3333 22.3461 13.4035 22.4711 13.5286C22.5961 13.6536 22.6663 13.8231 22.6663 14C22.6663 14.1768 22.5961 14.3463 22.4711 14.4714C22.3461 14.5964 22.1765 14.6666 21.9997 14.6666H9.99967C9.82286 14.6666 9.65329 14.5964 9.52827 14.4714C9.40325 14.3463 9.33301 14.1768 9.33301 14ZM9.33301 16.6666C9.33301 16.4898 9.40325 16.3202 9.52827 16.1952C9.65329 16.0702 9.82286 16 9.99967 16H21.9997C22.1765 16 22.3461 16.0702 22.4711 16.1952C22.5961 16.3202 22.6663 16.4898 22.6663 16.6666C22.6663 16.8434 22.5961 17.013 22.4711 17.138C22.3461 17.2631 22.1765 17.3333 21.9997 17.3333H9.99967C9.82286 17.3333 9.65329 17.2631 9.52827 17.138C9.40325 17.013 9.33301 16.8434 9.33301 16.6666ZM18.6663 23.3333C19.02 23.3333 19.3591 23.1928 19.6092 22.9428C19.8592 22.6927 19.9997 22.3536 19.9997 22C19.9997 21.6463 19.8592 21.3072 19.6092 21.0572C19.3591 20.8071 19.02 20.6666 18.6663 20.6666C18.3127 20.6666 17.9736 20.8071 17.7235 21.0572C17.4735 21.3072 17.333 21.6463 17.333 22C17.333 22.3536 17.4735 22.6927 17.7235 22.9428C17.9736 23.1928 18.3127 23.3333 18.6663 23.3333ZM18.6663 24.6666C19.3736 24.6666 20.0519 24.3857 20.552 23.8856C21.0521 23.3855 21.333 22.7072 21.333 22C21.333 21.2927 21.0521 20.6144 20.552 20.1143C20.0519 19.6142 19.3736 19.3333 18.6663 19.3333C17.9591 19.3333 17.2808 19.6142 16.7807 20.1143C16.2806 20.6144 15.9997 21.2927 15.9997 22C15.9997 22.7072 16.2806 23.3855 16.7807 23.8856C17.2808 24.3857 17.9591 24.6666 18.6663 24.6666Z" fill="black"/>
<path fill-rule="evenodd" clip-rule="evenodd" d="M17.9998 23.3333H16.6665V29.3333L18.6665 28.3333L20.6665 29.3333V23.3333H19.3332V27.1759L18.6665 26.8426L17.9998 27.1759V23.3333Z" fill="black"/>
</svg>
