<svg width="32" height="32" viewBox="0 0 32 32" fill="none" xmlns="http://www.w3.org/2000/svg">
<path d="M14.6668 22.6666H17.3335V14.6666H14.6668V22.6666ZM16.0002 12C16.3779 12 16.6948 11.872 16.9508 11.616C17.2068 11.36 17.3344 11.0435 17.3335 10.6666C17.3335 10.2888 17.2055 9.97196 16.9495 9.71596C16.6935 9.45996 16.3771 9.3324 16.0002 9.33329C15.6224 9.33329 15.3055 9.46129 15.0495 9.71729C14.7935 9.97329 14.6659 10.2897 14.6668 10.6666C14.6668 11.0444 14.7948 11.3613 15.0508 11.6173C15.3068 11.8733 15.6233 12.0008 16.0002 12ZM16.0002 29.3333C12.9113 28.5555 10.3611 26.7831 8.3495 24.016C6.33794 21.2488 5.33261 18.1768 5.3335 14.8V6.66663L16.0002 2.66663L26.6668 6.66663V14.8C26.6668 18.1777 25.6611 21.2502 23.6495 24.0173C21.6379 26.7844 19.0882 28.5564 16.0002 29.3333ZM16.0002 26.5333C18.3113 25.8 20.2224 24.3333 21.7335 22.1333C23.2446 19.9333 24.0002 17.4888 24.0002 14.8V8.49996L16.0002 5.49996L8.00016 8.49996V14.8C8.00016 17.4888 8.75572 19.9333 10.2668 22.1333C11.7779 24.3333 13.6891 25.8 16.0002 26.5333Z" fill="black"/>
</svg>
