<svg width="32" height="32" viewBox="0 0 32 32" fill="none" xmlns="http://www.w3.org/2000/svg">
<path d="M5.33317 28C4.59984 28 3.97184 27.7386 3.44917 27.216C2.92651 26.6933 2.66562 26.0657 2.66651 25.3333V10.6666C2.66651 9.93329 2.92784 9.30529 3.45051 8.78263C3.97317 8.25996 4.60073 7.99907 5.33317 7.99996H10.6665V5.33329C10.6665 4.59996 10.9278 3.97196 11.4505 3.44929C11.9732 2.92663 12.6007 2.66574 13.3332 2.66663H18.6665C19.3998 2.66663 20.0278 2.92796 20.5505 3.45063C21.0732 3.97329 21.3341 4.60085 21.3332 5.33329V7.99996H26.6665C27.3998 7.99996 28.0278 8.26129 28.5505 8.78396C29.0732 9.30663 29.3341 9.93418 29.3332 10.6666V25.3333C29.3332 26.0666 29.0718 26.6946 28.5492 27.2173C28.0265 27.74 27.399 28.0008 26.6665 28H5.33317ZM5.33317 25.3333H26.6665V10.6666H5.33317V25.3333ZM13.3332 7.99996H18.6665V5.33329H13.3332V7.99996Z" fill="black"/>
</svg>
