<svg width="32" height="32" viewBox="0 0 32 32" fill="none" xmlns="http://www.w3.org/2000/svg">
<path d="M15.9998 2.66663C14.2489 2.66663 12.5151 3.0115 10.8974 3.68157C9.27972 4.35163 7.80986 5.33375 6.57175 6.57187C4.07126 9.07235 2.6665 12.4637 2.6665 16C2.6665 19.5362 4.07126 22.9276 6.57175 25.428C7.80986 26.6662 9.27972 27.6483 10.8974 28.3184C12.5151 28.9884 14.2489 29.3333 15.9998 29.3333C19.5361 29.3333 22.9274 27.9285 25.4279 25.428C27.9284 22.9276 29.3332 19.5362 29.3332 16C29.3332 14.4533 29.0532 12.92 28.5198 11.48L26.3865 13.6133C26.5732 14.4 26.6665 15.2 26.6665 16C26.6665 18.8289 25.5427 21.542 23.5423 23.5424C21.5419 25.5428 18.8288 26.6666 15.9998 26.6666C13.1709 26.6666 10.4578 25.5428 8.45736 23.5424C6.45698 21.542 5.33317 18.8289 5.33317 16C5.33317 13.171 6.45698 10.4579 8.45736 8.45749C10.4578 6.4571 13.1709 5.33329 15.9998 5.33329C16.7998 5.33329 17.5998 5.42663 18.3865 5.61329L20.5332 3.46663C19.0798 2.94663 17.5465 2.66663 15.9998 2.66663ZM25.3332 2.66663L19.9998 7.99996V9.99996L16.5998 13.4C16.3998 13.3333 16.1998 13.3333 15.9998 13.3333C15.2926 13.3333 14.6143 13.6142 14.1142 14.1143C13.6141 14.6144 13.3332 15.2927 13.3332 16C13.3332 16.7072 13.6141 17.3855 14.1142 17.8856C14.6143 18.3857 15.2926 18.6666 15.9998 18.6666C16.7071 18.6666 17.3854 18.3857 17.8855 17.8856C18.3856 17.3855 18.6665 16.7072 18.6665 16C18.6665 15.8 18.6665 15.6 18.5998 15.4L21.9998 12H23.9998L29.3332 6.66663H25.3332V2.66663ZM15.9998 7.99996C13.8781 7.99996 11.8433 8.84281 10.343 10.3431C8.84269 11.8434 7.99984 13.8782 7.99984 16C7.99984 18.1217 8.84269 20.1565 10.343 21.6568C11.8433 23.1571 13.8781 24 15.9998 24C18.1216 24 20.1564 23.1571 21.6567 21.6568C23.157 20.1565 23.9998 18.1217 23.9998 16H21.3332C21.3332 17.4144 20.7713 18.771 19.7711 19.7712C18.7709 20.7714 17.4143 21.3333 15.9998 21.3333C14.5853 21.3333 13.2288 20.7714 12.2286 19.7712C11.2284 18.771 10.6665 17.4144 10.6665 16C10.6665 14.5855 11.2284 13.2289 12.2286 12.2287C13.2288 11.2285 14.5853 10.6666 15.9998 10.6666V7.99996Z" fill="black"/>
</svg>
