<svg width="32" height="32" viewBox="0 0 32 32" fill="none" xmlns="http://www.w3.org/2000/svg">
<path d="M8.00016 26.6666H17.3335V29.3333H8.00016C6.52016 29.3333 5.3335 28.1466 5.3335 26.6666V5.33329C5.3335 4.62605 5.61445 3.94777 6.11454 3.44767C6.61464 2.94758 7.29292 2.66663 8.00016 2.66663H24.0002C24.7074 2.66663 25.3857 2.94758 25.8858 3.44767C26.3859 3.94777 26.6668 4.62605 26.6668 5.33329V16.72L24.6668 15.6266L24.0002 16V5.33329H17.3335V16L14.0002 13L10.6668 16V5.33329H8.00016V26.6666ZM32.0002 22.6666L24.6668 18.6666L17.3335 22.6666L24.6668 26.6666L32.0002 22.6666ZM20.0002 25.4533V28.12L24.6668 30.6666L29.3335 28.12V25.4533L24.6668 28L20.0002 25.4533Z" fill="black"/>
</svg>
